<svg width="15" height="20" viewBox="0 0 15 20" fill="none" xmlns="http://www.w3.org/2000/svg">
<g id="Group">
<path id="Vector" d="M13.4275 9.1206C13.7239 9.14484 14.021 9.12921 14.3178 9.13162C14.3859 9.13222 14.4091 9.15044 14.4089 9.22175C14.4063 10.5034 14.4125 11.785 14.4025 13.0666C14.3983 13.6005 14.3148 14.1273 14.1796 14.6454C14.0182 15.2639 13.776 15.8483 13.4564 16.4009C13.2226 16.8048 12.9472 17.1792 12.6378 17.5287C12.1369 18.0943 11.5595 18.5681 10.9056 18.9443C10.1908 19.3556 9.42648 19.6344 8.61133 19.7776C8.07216 19.8724 7.5306 19.8928 6.98743 19.8684C6.40701 19.8421 5.83961 19.733 5.28443 19.5569C4.61308 19.3442 3.9882 19.0392 3.41138 18.6372C2.84238 18.2409 2.34127 17.7718 1.90926 17.2276C1.48626 16.6955 1.14639 16.1161 0.894229 15.4858C0.645878 14.8645 0.480845 14.2214 0.42757 13.5527C0.350862 12.5899 0.404537 11.6251 0.391519 10.6614C0.38511 10.1875 0.393121 9.71344 0.388114 9.23957C0.387113 9.14764 0.416154 9.12921 0.500873 9.13082C0.754432 9.13602 1.00819 9.13302 1.26175 9.13222C1.298 9.13202 1.33425 9.12661 1.3705 9.12361C1.42057 9.09877 1.47445 9.10438 1.52752 9.10438C2.23312 9.10338 2.93852 9.10558 3.64411 9.10278C3.73043 9.07834 3.81656 9.10498 3.90288 9.10498C5.24678 9.10398 6.59067 9.11019 7.93457 9.09937C8.21356 9.09717 8.49456 9.09256 8.77235 9.09717C9.56247 9.11019 10.3526 9.09116 11.1427 9.10738C11.8551 9.10057 12.5675 9.10618 13.2799 9.10438C13.3296 9.10438 13.3801 9.09937 13.4275 9.1206Z" fill="white"/>
<path id="Vector_2" d="M3.65404 9.12534C3.59776 9.12715 3.54148 9.13075 3.4852 9.13075C2.81345 9.13095 2.14171 9.13095 1.46976 9.13035C1.43671 9.13035 1.40366 9.12674 1.37062 9.12474C1.37122 8.25371 1.35499 7.38228 1.37642 6.51185C1.41147 5.08624 1.90697 3.82766 2.83789 2.74934C3.72995 1.71608 4.84713 1.03492 6.19042 0.784769C8.44481 0.364976 10.3695 1.01069 11.9151 2.70448C12.8354 3.7129 13.3211 4.92441 13.4122 6.28894C13.4465 6.80206 13.4226 7.31639 13.4266 7.83011C13.4301 8.26052 13.4274 8.69113 13.4274 9.12154C13.4048 9.12474 13.3822 9.13055 13.3596 9.13055C12.6407 9.13115 11.9217 9.13115 11.2029 9.13075C11.1833 9.13075 11.1636 9.12634 11.144 9.12414C11.1024 9.07928 11.116 9.0232 11.116 8.97153C11.115 8.16759 11.1242 7.36346 11.1124 6.55972C11.1038 5.98391 10.9467 5.44174 10.6764 4.93202C10.4609 4.52565 10.1728 4.17656 9.82976 3.87573C9.44182 3.53565 8.99699 3.2883 8.50189 3.13569C8.20086 3.04296 7.89383 2.99148 7.57818 2.97706C6.58458 2.9318 5.70854 3.23423 4.96269 3.88434C4.23406 4.51944 3.81207 5.32598 3.70271 6.29114C3.68809 6.42072 3.68248 6.55011 3.68248 6.68029C3.68328 7.44417 3.68308 8.20825 3.68228 8.97213C3.68208 9.0242 3.6937 9.07988 3.65404 9.12534Z" fill="white"/>
<path id="Vector_3" d="M7.39467 16.6264C6.94103 16.6264 6.48739 16.6248 6.03375 16.628C5.95384 16.6286 5.93161 16.6168 5.95564 16.53C6.19358 15.6694 6.4257 14.8074 6.66404 13.9468C6.68647 13.8661 6.67606 13.8276 6.60275 13.7806C5.95224 13.364 5.74074 12.5046 6.11867 11.8346C6.50221 11.1548 7.3424 10.8845 8.03938 11.2316C8.53287 11.4775 8.81848 11.8855 8.85913 12.4387C8.90079 13.0077 8.67027 13.4573 8.1992 13.7784C8.1293 13.826 8.11168 13.8623 8.13451 13.9448C8.37145 14.7988 8.60357 15.6542 8.8367 16.5092C8.86855 16.626 8.86795 16.6264 8.74557 16.6266C8.29534 16.6268 7.8449 16.6266 7.39467 16.6266C7.39467 16.6268 7.39467 16.6266 7.39467 16.6264Z" fill="#1E2128"/>
</g>
</svg>
